<mxfile host="app.diagrams.net" modified="2024-04-26T09:14:47.563Z" agent="Mozilla/5.0 (Windows NT 10.0; Win64; x64) AppleWebKit/537.36 (KHTML, like Gecko) Chrome/124.0.0.0 Safari/537.36" etag="gDGnjVOthXZsrILxHxGW" version="24.3.0" type="github">
  <diagram name="Page-1" id="BxtzfTcBLENATQ5FxvTT">
    <mxGraphModel dx="2074" dy="1140" grid="1" gridSize="10" guides="1" tooltips="1" connect="1" arrows="1" fold="1" page="1" pageScale="1" pageWidth="850" pageHeight="1100" math="0" shadow="0">
      <root>
        <mxCell id="0" />
        <mxCell id="1" parent="0" />
        <mxCell id="LQASvHNtZ6_Kiz6CMEfv-1" value="" style="endArrow=none;dashed=1;html=1;rounded=0;" edge="1" parent="1">
          <mxGeometry width="50" height="50" relative="1" as="geometry">
            <mxPoint y="120" as="sourcePoint" />
            <mxPoint x="520" y="120" as="targetPoint" />
          </mxGeometry>
        </mxCell>
        <mxCell id="LQASvHNtZ6_Kiz6CMEfv-2" value="&lt;font style=&quot;font-size: 20px;&quot;&gt;DRAM&lt;/font&gt;" style="rounded=0;whiteSpace=wrap;html=1;fillColor=none;strokeColor=none;" vertex="1" parent="1">
          <mxGeometry y="80" width="80" height="40" as="geometry" />
        </mxCell>
        <mxCell id="LQASvHNtZ6_Kiz6CMEfv-3" value="&lt;font style=&quot;font-size: 20px;&quot;&gt;PMEM&lt;/font&gt;" style="rounded=0;whiteSpace=wrap;html=1;fillColor=none;strokeColor=none;" vertex="1" parent="1">
          <mxGeometry y="120" width="80" height="40" as="geometry" />
        </mxCell>
        <mxCell id="LQASvHNtZ6_Kiz6CMEfv-4" value="0" style="rounded=0;whiteSpace=wrap;html=1;fillColor=none;" vertex="1" parent="1">
          <mxGeometry x="150" y="35" width="20" height="20" as="geometry" />
        </mxCell>
        <mxCell id="LQASvHNtZ6_Kiz6CMEfv-5" value="1" style="rounded=0;whiteSpace=wrap;html=1;fillColor=none;" vertex="1" parent="1">
          <mxGeometry x="170" y="35" width="20" height="20" as="geometry" />
        </mxCell>
        <mxCell id="LQASvHNtZ6_Kiz6CMEfv-6" value="2" style="rounded=0;whiteSpace=wrap;html=1;fillColor=none;" vertex="1" parent="1">
          <mxGeometry x="190" y="35" width="20" height="20" as="geometry" />
        </mxCell>
        <mxCell id="LQASvHNtZ6_Kiz6CMEfv-7" value="3" style="rounded=0;whiteSpace=wrap;html=1;fillColor=none;" vertex="1" parent="1">
          <mxGeometry x="210" y="35" width="20" height="20" as="geometry" />
        </mxCell>
        <mxCell id="LQASvHNtZ6_Kiz6CMEfv-8" value="4" style="rounded=0;whiteSpace=wrap;html=1;fillColor=none;" vertex="1" parent="1">
          <mxGeometry x="230" y="35" width="20" height="20" as="geometry" />
        </mxCell>
        <mxCell id="LQASvHNtZ6_Kiz6CMEfv-9" value="..." style="rounded=0;whiteSpace=wrap;html=1;fillColor=none;" vertex="1" parent="1">
          <mxGeometry x="250" y="35" width="30" height="20" as="geometry" />
        </mxCell>
        <mxCell id="LQASvHNtZ6_Kiz6CMEfv-10" value="" style="rounded=0;whiteSpace=wrap;html=1;fillColor=none;" vertex="1" parent="1">
          <mxGeometry x="150" y="55" width="20" height="40" as="geometry" />
        </mxCell>
        <mxCell id="LQASvHNtZ6_Kiz6CMEfv-11" value="" style="rounded=0;whiteSpace=wrap;html=1;fillColor=none;" vertex="1" parent="1">
          <mxGeometry x="170" y="55" width="20" height="40" as="geometry" />
        </mxCell>
        <mxCell id="LQASvHNtZ6_Kiz6CMEfv-12" value="" style="rounded=0;whiteSpace=wrap;html=1;fillColor=#666666;" vertex="1" parent="1">
          <mxGeometry x="190" y="55" width="20" height="40" as="geometry" />
        </mxCell>
        <mxCell id="LQASvHNtZ6_Kiz6CMEfv-13" value="" style="rounded=0;whiteSpace=wrap;html=1;fillColor=none;" vertex="1" parent="1">
          <mxGeometry x="210" y="55" width="20" height="40" as="geometry" />
        </mxCell>
        <mxCell id="LQASvHNtZ6_Kiz6CMEfv-14" value="" style="rounded=0;whiteSpace=wrap;html=1;fillColor=none;" vertex="1" parent="1">
          <mxGeometry x="230" y="55" width="20" height="40" as="geometry" />
        </mxCell>
        <mxCell id="LQASvHNtZ6_Kiz6CMEfv-15" value="" style="rounded=0;whiteSpace=wrap;html=1;fillColor=none;" vertex="1" parent="1">
          <mxGeometry x="250" y="55" width="30" height="40" as="geometry" />
        </mxCell>
        <mxCell id="LQASvHNtZ6_Kiz6CMEfv-16" value="" style="rounded=0;whiteSpace=wrap;html=1;fillColor=#CCCCCC;" vertex="1" parent="1">
          <mxGeometry x="120" y="170" width="60" height="20" as="geometry" />
        </mxCell>
        <mxCell id="LQASvHNtZ6_Kiz6CMEfv-17" value="" style="rounded=0;whiteSpace=wrap;html=1;fillColor=#000000;" vertex="1" parent="1">
          <mxGeometry x="240" y="170" width="60" height="20" as="geometry" />
        </mxCell>
        <mxCell id="LQASvHNtZ6_Kiz6CMEfv-18" value="" style="rounded=0;whiteSpace=wrap;html=1;" vertex="1" parent="1">
          <mxGeometry x="300" y="170" width="200" height="20" as="geometry" />
        </mxCell>
        <mxCell id="LQASvHNtZ6_Kiz6CMEfv-19" value="&lt;font style=&quot;font-size: 15px;&quot;&gt;Sub inode log&lt;/font&gt;&lt;div&gt;&lt;font style=&quot;font-size: 15px;&quot;&gt;(4 KiB)&lt;/font&gt;&lt;/div&gt;" style="rounded=0;whiteSpace=wrap;html=1;fillColor=none;strokeColor=none;" vertex="1" parent="1">
          <mxGeometry y="157.5" width="120" height="45" as="geometry" />
        </mxCell>
        <mxCell id="LQASvHNtZ6_Kiz6CMEfv-21" style="edgeStyle=orthogonalEdgeStyle;rounded=0;orthogonalLoop=1;jettySize=auto;html=1;exitX=0.5;exitY=1;exitDx=0;exitDy=0;entryX=1;entryY=0;entryDx=0;entryDy=0;" edge="1" parent="1" target="LQASvHNtZ6_Kiz6CMEfv-17">
          <mxGeometry relative="1" as="geometry">
            <mxPoint x="300" y="150" as="sourcePoint" />
          </mxGeometry>
        </mxCell>
        <mxCell id="LQASvHNtZ6_Kiz6CMEfv-22" value="&lt;font style=&quot;font-size: 12px;&quot;&gt;log tail&lt;/font&gt;" style="rounded=0;whiteSpace=wrap;html=1;fillColor=none;strokeColor=none;" vertex="1" parent="1">
          <mxGeometry x="274" y="130" width="50" height="20" as="geometry" />
        </mxCell>
        <mxCell id="LQASvHNtZ6_Kiz6CMEfv-23" value="&lt;font style=&quot;font-size: 18px;&quot;&gt;Block map&lt;/font&gt;" style="rounded=0;whiteSpace=wrap;html=1;fillColor=none;strokeColor=none;" vertex="1" parent="1">
          <mxGeometry x="150" width="130" height="35" as="geometry" />
        </mxCell>
        <mxCell id="LQASvHNtZ6_Kiz6CMEfv-24" value="&lt;font style=&quot;font-size: 15px;&quot;&gt;Data block&lt;/font&gt;&lt;div&gt;&lt;font style=&quot;font-size: 15px;&quot;&gt;(2 MiB)&lt;/font&gt;&lt;/div&gt;" style="rounded=0;whiteSpace=wrap;html=1;fillColor=none;strokeColor=none;" vertex="1" parent="1">
          <mxGeometry x="15" y="220" width="90" height="40" as="geometry" />
        </mxCell>
        <mxCell id="LQASvHNtZ6_Kiz6CMEfv-25" value="&lt;font color=&quot;#ffffff&quot;&gt;1&lt;/font&gt;" style="ellipse;whiteSpace=wrap;html=1;aspect=fixed;fillColor=#000000;" vertex="1" parent="1">
          <mxGeometry x="205" y="98" width="20" height="20" as="geometry" />
        </mxCell>
        <mxCell id="LQASvHNtZ6_Kiz6CMEfv-26" value="&lt;font color=&quot;#ffffff&quot;&gt;2&lt;/font&gt;" style="ellipse;whiteSpace=wrap;html=1;aspect=fixed;fillColor=#000000;" vertex="1" parent="1">
          <mxGeometry x="328.5" y="230" width="20" height="20" as="geometry" />
        </mxCell>
        <mxCell id="LQASvHNtZ6_Kiz6CMEfv-28" value="&lt;font style=&quot;font-size: 12px;&quot;&gt;&lt;b&gt;locate sub inode log in PMEM&lt;/b&gt;&lt;/font&gt;" style="rounded=0;whiteSpace=wrap;html=1;fillColor=none;strokeColor=none;" vertex="1" parent="1">
          <mxGeometry x="225" y="99" width="180" height="18" as="geometry" />
        </mxCell>
        <mxCell id="LQASvHNtZ6_Kiz6CMEfv-30" value="&lt;b&gt;update data&lt;/b&gt;" style="rounded=0;whiteSpace=wrap;html=1;fillColor=none;strokeColor=none;" vertex="1" parent="1">
          <mxGeometry x="347" y="231" width="78.5" height="18" as="geometry" />
        </mxCell>
        <mxCell id="LQASvHNtZ6_Kiz6CMEfv-31" value="" style="rounded=0;whiteSpace=wrap;html=1;fillColor=#CCCCCC;" vertex="1" parent="1">
          <mxGeometry x="180" y="170" width="60" height="20" as="geometry" />
        </mxCell>
        <mxCell id="LQASvHNtZ6_Kiz6CMEfv-33" value="" style="endArrow=classic;html=1;rounded=0;entryX=0;entryY=0;entryDx=0;entryDy=0;" edge="1" parent="1" target="LQASvHNtZ6_Kiz6CMEfv-16">
          <mxGeometry width="50" height="50" relative="1" as="geometry">
            <mxPoint x="120" y="140" as="sourcePoint" />
            <mxPoint x="200" y="360" as="targetPoint" />
          </mxGeometry>
        </mxCell>
        <mxCell id="LQASvHNtZ6_Kiz6CMEfv-34" value="" style="endArrow=none;html=1;rounded=0;" edge="1" parent="1">
          <mxGeometry width="50" height="50" relative="1" as="geometry">
            <mxPoint x="120" y="140" as="sourcePoint" />
            <mxPoint x="200" y="140" as="targetPoint" />
          </mxGeometry>
        </mxCell>
        <mxCell id="LQASvHNtZ6_Kiz6CMEfv-35" value="" style="endArrow=none;html=1;rounded=0;exitX=0.5;exitY=1;exitDx=0;exitDy=0;" edge="1" parent="1" source="LQASvHNtZ6_Kiz6CMEfv-12">
          <mxGeometry width="50" height="50" relative="1" as="geometry">
            <mxPoint x="400" y="470" as="sourcePoint" />
            <mxPoint x="200" y="140" as="targetPoint" />
          </mxGeometry>
        </mxCell>
        <mxCell id="LQASvHNtZ6_Kiz6CMEfv-45" value="" style="endArrow=classic;html=1;rounded=0;exitX=0.5;exitY=1;exitDx=0;exitDy=0;entryX=0.375;entryY=0;entryDx=0;entryDy=0;entryPerimeter=0;" edge="1" parent="1" source="LQASvHNtZ6_Kiz6CMEfv-17">
          <mxGeometry width="50" height="50" relative="1" as="geometry">
            <mxPoint x="400" y="470" as="sourcePoint" />
            <mxPoint x="270" y="220" as="targetPoint" />
          </mxGeometry>
        </mxCell>
        <mxCell id="LQASvHNtZ6_Kiz6CMEfv-55" value="" style="rounded=0;whiteSpace=wrap;html=1;fillColor=#CCCCCC;" vertex="1" parent="1">
          <mxGeometry x="360" y="20" width="60" height="20" as="geometry" />
        </mxCell>
        <mxCell id="LQASvHNtZ6_Kiz6CMEfv-56" value="" style="rounded=0;whiteSpace=wrap;html=1;fillColor=#000000;" vertex="1" parent="1">
          <mxGeometry x="360" y="50" width="60" height="20" as="geometry" />
        </mxCell>
        <mxCell id="LQASvHNtZ6_Kiz6CMEfv-57" value="&lt;font style=&quot;font-size: 12px;&quot;&gt;old log entry&lt;/font&gt;" style="rounded=0;whiteSpace=wrap;html=1;fillColor=none;strokeColor=none;" vertex="1" parent="1">
          <mxGeometry x="430" y="20" width="70" height="20" as="geometry" />
        </mxCell>
        <mxCell id="LQASvHNtZ6_Kiz6CMEfv-58" value="&lt;font style=&quot;font-size: 12px;&quot;&gt;current log entry&lt;/font&gt;" style="rounded=0;whiteSpace=wrap;html=1;fillColor=none;strokeColor=none;" vertex="1" parent="1">
          <mxGeometry x="430" y="50" width="90" height="20" as="geometry" />
        </mxCell>
        <mxCell id="LQASvHNtZ6_Kiz6CMEfv-59" value="" style="rounded=0;whiteSpace=wrap;html=1;fillStyle=hatch;fillColor=#000000;" vertex="1" parent="1">
          <mxGeometry x="250" y="220" width="40" height="40" as="geometry" />
        </mxCell>
        <mxCell id="LQASvHNtZ6_Kiz6CMEfv-60" value="" style="rounded=0;whiteSpace=wrap;html=1;fillColor=none;" vertex="1" parent="1">
          <mxGeometry x="230" y="220" width="20" height="40" as="geometry" />
        </mxCell>
        <mxCell id="LQASvHNtZ6_Kiz6CMEfv-61" value="" style="rounded=0;whiteSpace=wrap;html=1;fillColor=none;" vertex="1" parent="1">
          <mxGeometry x="290" y="220" width="20" height="40" as="geometry" />
        </mxCell>
        <mxCell id="LQASvHNtZ6_Kiz6CMEfv-62" value="" style="endArrow=classic;html=1;rounded=0;entryX=0.5;entryY=1;entryDx=0;entryDy=0;" edge="1" parent="1" target="LQASvHNtZ6_Kiz6CMEfv-60">
          <mxGeometry width="50" height="50" relative="1" as="geometry">
            <mxPoint x="240" y="280" as="sourcePoint" />
            <mxPoint x="450" y="360" as="targetPoint" />
          </mxGeometry>
        </mxCell>
        <mxCell id="LQASvHNtZ6_Kiz6CMEfv-63" value="" style="endArrow=classic;html=1;rounded=0;entryX=0.5;entryY=1;entryDx=0;entryDy=0;" edge="1" parent="1" target="LQASvHNtZ6_Kiz6CMEfv-61">
          <mxGeometry width="50" height="50" relative="1" as="geometry">
            <mxPoint x="300" y="280" as="sourcePoint" />
            <mxPoint x="450" y="360" as="targetPoint" />
          </mxGeometry>
        </mxCell>
        <mxCell id="LQASvHNtZ6_Kiz6CMEfv-64" value="" style="endArrow=none;html=1;rounded=0;" edge="1" parent="1">
          <mxGeometry width="50" height="50" relative="1" as="geometry">
            <mxPoint x="240" y="280" as="sourcePoint" />
            <mxPoint x="300" y="280" as="targetPoint" />
          </mxGeometry>
        </mxCell>
        <mxCell id="LQASvHNtZ6_Kiz6CMEfv-65" value="&lt;font color=&quot;#ffffff&quot;&gt;3&lt;/font&gt;" style="ellipse;whiteSpace=wrap;html=1;aspect=fixed;fillColor=#000000;" vertex="1" parent="1">
          <mxGeometry x="220" y="280" width="20" height="20" as="geometry" />
        </mxCell>
        <mxCell id="LQASvHNtZ6_Kiz6CMEfv-66" value="&lt;b&gt;handle unaligned write&lt;/b&gt;" style="rounded=0;whiteSpace=wrap;html=1;fillColor=none;strokeColor=none;" vertex="1" parent="1">
          <mxGeometry x="245.38" y="281" width="139.25" height="18" as="geometry" />
        </mxCell>
      </root>
    </mxGraphModel>
  </diagram>
</mxfile>
